<?xml version="1.0" standalone="no"?>
<!DOCTYPE svg PUBLIC "-//W3C//DTD SVG 20010904//EN"
 "http://www.w3.org/TR/2001/REC-SVG-20010904/DTD/svg10.dtd">
<svg version="1.0" xmlns="http://www.w3.org/2000/svg"
 width="704.000000pt" height="704.000000pt" viewBox="0 0 704.000000 704.000000"
 preserveAspectRatio="xMidYMid meet">
<metadata>
Created by potrace 1.14, written by Peter Selinger 2001-2017
</metadata>
<g transform="translate(0.000000,704.000000) scale(0.100000,-0.100000)"
fill="#000000" stroke="none">
<path d="M3415 6893 c3 -82 17 -724 30 -1428 13 -704 27 -1354 30 -1444 3 -91
3 -163 1 -160 -3 3 -172 682 -376 1509 -204 828 -375 1521 -380 1541 l-10 36
-101 -26 c-97 -25 -100 -27 -95 -51 3 -14 201 -700 440 -1525 239 -825 434
-1501 432 -1502 -1 -1 -346 622 -766 1385 -420 763 -764 1389 -766 1390 -2 3
-170 -92 -182 -103 -1 -1 367 -613 818 -1360 452 -746 820 -1358 818 -1360 -2
-1 -498 513 -1102 1142 l-1099 1144 -76 -75 c-66 -67 -73 -77 -59 -88 27 -22
2268 -2180 2268 -2185 0 -2 -4 -2 -8 1 -68 41 -2676 1617 -2690 1625 -16 9
-25 -1 -71 -80 -29 -50 -51 -92 -49 -93 1 -1 627 -346 1390 -766 763 -420
1386 -765 1385 -767 -2 -1 -686 196 -1521 438 -836 242 -1522 436 -1527 432
-4 -4 -18 -50 -32 -100 l-25 -93 37 -9 c20 -6 713 -177 1541 -381 827 -204
1506 -373 1509 -376 3 -2 -69 -2 -160 1 -90 3 -738 17 -1439 30 -701 13 -1344
27 -1427 29 l-153 6 0 -108 0 -107 117 3 c65 1 707 13 1428 27 721 13 1384 27
1474 30 91 3 163 3 160 1 -3 -3 -682 -172 -1509 -376 -827 -204 -1521 -375
-1541 -380 l-37 -10 25 -93 c14 -50 28 -96 33 -100 4 -4 690 190 1526 432 835
242 1520 439 1521 437 2 -1 -617 -344 -1374 -761 -758 -417 -1383 -763 -1390
-769 -8 -8 1 -32 37 -94 26 -45 49 -85 52 -87 3 -3 616 364 1363 815 746 452
1358 820 1360 818 1 -2 -513 -498 -1142 -1102 l-1144 -1099 75 -76 c41 -41 77
-73 79 -71 15 20 2189 2280 2192 2280 5 0 -154 -264 -1093 -1817 -286 -474
-525 -871 -531 -881 -10 -18 -1 -25 80 -72 50 -28 92 -50 93 -48 1 2 346 627
766 1390 420 763 765 1387 766 1385 2 -1 -195 -686 -437 -1521 -242 -836 -436
-1522 -432 -1527 4 -4 50 -18 100 -31 82 -22 93 -23 97 -9 3 9 174 702 381
1541 207 838 378 1527 381 1529 2 3 2 -69 -1 -160 -3 -90 -17 -738 -30 -1439
-13 -701 -27 -1344 -29 -1428 l-6 -152 108 0 107 0 -3 117 c-1 65 -13 707 -27
1428 -13 721 -27 1384 -30 1474 -3 91 -3 163 -1 160 3 -2 172 -681 375 -1507
204 -827 375 -1520 381 -1541 l10 -38 97 26 c92 25 98 29 96 51 -1 14 -198
700 -437 1525 -239 825 -433 1501 -432 1502 1 2 346 -622 766 -1385 420 -763
764 -1388 766 -1390 2 -3 184 98 184 103 0 2 -1254 2080 -1526 2528 -63 103
-112 187 -109 187 2 0 494 -510 1094 -1134 599 -624 1094 -1137 1099 -1140 5
-3 41 28 81 68 l72 73 -1144 1099 c-630 604 -1144 1100 -1142 1102 1 1 613
-367 1360 -818 747 -451 1360 -818 1363 -815 3 2 26 42 52 87 36 62 45 86 37
94 -7 6 -632 352 -1390 769 -757 417 -1376 759 -1374 761 1 2 686 -195 1520
-437 835 -242 1522 -437 1526 -434 14 8 54 186 45 195 -5 4 -697 177 -1539
384 -841 208 -1532 379 -1534 382 -3 2 69 2 160 -1 90 -3 754 -17 1474 -30
721 -14 1363 -26 1428 -27 l117 -3 0 107 0 108 -147 -5 c-82 -3 -724 -17
-1428 -30 -704 -13 -1354 -27 -1444 -30 -91 -3 -163 -3 -160 -1 2 3 691 174
1529 381 839 207 1532 378 1541 381 14 4 13 15 -9 97 -13 50 -27 95 -31 100
-4 4 -691 -190 -1526 -432 -836 -242 -1521 -439 -1522 -437 -1 1 622 346 1385
766 763 420 1388 764 1390 766 2 1 -20 43 -48 93 -47 82 -54 90 -72 80 -11 -6
-408 -245 -882 -532 -1550 -936 -1816 -1097 -1816 -1092 0 2 510 494 1134
1094 624 599 1137 1094 1140 1099 3 5 -28 41 -68 81 l-73 72 -1099 -1144
c-604 -629 -1100 -1143 -1102 -1142 -2 2 366 614 818 1360 451 747 819 1359
818 1361 -2 1 -41 25 -88 52 -65 39 -88 48 -96 39 -6 -7 -352 -632 -769 -1389
-417 -758 -760 -1377 -761 -1375 -2 1 195 686 437 1521 241 835 439 1521 439
1524 0 13 -201 60 -205 48 -2 -6 -173 -699 -380 -1541 -207 -841 -378 -1532
-381 -1534 -2 -3 -2 69 1 160 3 90 17 754 30 1474 14 721 26 1363 27 1428 l3
117 -107 0 -108 0 5 -147z"/>
</g>
</svg>
